<svg xmlns="http://www.w3.org/2000/svg" viewBox="0 0 60 60"><defs><style>.cls-1-Childcare{fill:#369;}.cls-2-Childcare{fill:#29aea7;}.cls-3-Childcare{fill:#4a4a4a;}.cls-4-Childcare{fill:none;}</style></defs><g id="Childcare"><path id="_Path_Childcare-4" data-name="&lt;Path&gt;Childcare-4" class="cls-1-Childcare" d="M35.72,29.15c3.27,3.94,4.75,7.9,4.6,12.49a13.12,13.12,0,0,0,7.2-.68,3.46,3.46,0,0,0,2.07-3.58,13.21,13.21,0,0,0-3.79-9.26.86.86,0,0,0-1.1-.24A4.86,4.86,0,0,1,40,27.23a.83.83,0,0,0-1.12,0c-1,.67-2.08,1.3-3.12,1.95"/><path id="_Path_Childcare-3" data-name="&lt;Path&gt;Childcare-3" class="cls-1-Childcare" d="M22.6,48.51c-1.15,0-3.37-.11-5.59-.24a8.1,8.1,0,0,1-1.75-.35c-3.5-1-4.9-2.74-4.85-6.25a19.29,19.29,0,0,1,6.45-14.24,1.78,1.78,0,0,1,1.39-.37,8.49,8.49,0,0,0,6-.75,1.77,1.77,0,0,1,1.46,0,19.75,19.75,0,0,1,10,13.89c.43,2.28-.61,3.87-2.4,5.14-2.84,2-6.18,2.55-10.64,3.16"/><path id="_Path_Childcare-2" data-name="&lt;Path&gt;Childcare-2" class="cls-2-Childcare" d="M12.79,19.37a7.43,7.43,0,0,1,14.75-1.61A7.29,7.29,0,0,1,21,25.65a7.43,7.43,0,0,1-8.2-6.28"/><path id="_Path_Childcare-1" data-name="&lt;Path&gt;Childcare-1" class="cls-3-Childcare" d="M43.6,17.47a4.75,4.75,0,1,0-1.12,9.43A4.91,4.91,0,0,0,48,22.67a4.73,4.73,0,0,0-4.39-5.2"/><rect id="_Path_Childcare-0" data-name="&lt;Path&gt;Childcare-0" class="cls-4-Childcare" x="10.41" y="11.49" width="39.18" height="37.03"/></g></svg>