<svg xmlns="http://www.w3.org/2000/svg" xmlns:xlink="http://www.w3.org/1999/xlink" viewBox="0 0 60 60"><defs><style>.cls-1-Education{fill:none;}.cls-2-Education{fill:#2e8f88;}.cls-3-Education{fill:#369;}.cls-4-Education{clip-path:url(#clip-path);}.cls-5-Education{fill:#2aada6;}.cls-6-Education{fill:#33669a;}.cls-7-Education{fill:#a0bd77;}</style><clipPath id="clip-path"><path id="_Clipping_Path_Education" data-name="&lt;Clipping Path&gt;Education" class="cls-1-Education" d="M20.25,9.83a3.85,3.85,0,0,0-.55.64.29.29,0,0,1-.29.12,2.34,2.34,0,0,0-.9.22l-.09,0V31.76a3.68,3.68,0,0,0,1.48.38.28.28,0,0,1,.3.28,3.77,3.77,0,0,0,1.43,2.49,8.16,8.16,0,0,0,5.06,1.71A11.19,11.19,0,0,0,30.25,36c.17,0,.31-.1.45.1a2.89,2.89,0,0,0,1.85,1.21,4.78,4.78,0,0,0,2.16,0c.12,0,.24-.08.35,0a2.92,2.92,0,0,1,.77,1.12c.22.66,7.29.5,7.14-.72,0-.16.06-.21.21-.24.31,0,.63-.1.93-.17a7.73,7.73,0,0,0,4.61-3,4.4,4.4,0,0,0,.9-3.22.38.38,0,0,1,.2-.39,4.25,4.25,0,0,0,1.63-4.51,1.76,1.76,0,0,1,.09-1.44,1.18,1.18,0,0,0,.11-.43,2.78,2.78,0,0,0,.05-.58h0c0-.25,0-.51,0-.79a18,18,0,0,0-.17-2.81A4.54,4.54,0,0,0,50,17.16a1.48,1.48,0,0,1-.63-1.1,4.42,4.42,0,0,0-1.65-2.77c-.95-.82-1.93-1.61-2.91-2.38a3.56,3.56,0,0,0-2.2-.89.34.34,0,0,1-.28-.16l0,0Z"/></clipPath></defs><g id="Education"><path id="_Path_Education-11" data-name="&lt;Path&gt;Education-11" class="cls-2-Education" d="M49.39,23.57a8.77,8.77,0,0,1,0,1.37,1.24,1.24,0,0,1-.11.43,1.84,1.84,0,0,0-.09,1.44,4.24,4.24,0,0,1-1.63,4.51.38.38,0,0,0-.2.39,4.37,4.37,0,0,1-.9,3.22,7.65,7.65,0,0,1-4.6,3c-.31.08-.63.13-.94.18-.14,0-.23.08-.21.24.15,1.22-6.92,1.38-7.13.72a3.06,3.06,0,0,0-.78-1.12c-.1-.12-.23-.07-.35,0a4.78,4.78,0,0,1-2.16,0,2.92,2.92,0,0,1-1.85-1.21c-.14-.2-.28-.16-.45-.1a11.14,11.14,0,0,1-3.56.65,8.18,8.18,0,0,1-5.06-1.71,3.77,3.77,0,0,1-1.43-2.5c0-.19-.12-.26-.3-.27a3.31,3.31,0,0,1-2.14-.86.37.37,0,0,0-.31-.09,4.29,4.29,0,0,1-4-1.94.52.52,0,0,0-.32-.22,2.54,2.54,0,0,1-1.92-1.81,11,11,0,0,1,.06-7.21,3.49,3.49,0,0,1,.83-1.28A.45.45,0,0,0,9.93,19a3.55,3.55,0,0,1,1-2.55,3.68,3.68,0,0,1,.43-.45,21.07,21.07,0,0,0,2.3-2.51,7.47,7.47,0,0,1,2.61-2.06,2.29,2.29,0,0,1,.89-.22.32.32,0,0,0,.3-.12,4.59,4.59,0,0,1,2.35-1.7A19.88,19.88,0,0,1,24,8.26a3.39,3.39,0,0,1,1.73.16.59.59,0,0,0,.47,0,5.81,5.81,0,0,1,4.12-.3A.66.66,0,0,0,30.79,8a3.47,3.47,0,0,1,3.84,1,1.84,1.84,0,0,1,.39.64c.08.26.21.26.42.17a5,5,0,0,1,1.65-.49A3,3,0,0,1,40,10.52a.32.32,0,0,0,.28.16,3.56,3.56,0,0,1,2.19.89c1,.77,2,1.56,2.91,2.38a4.37,4.37,0,0,1,1.65,2.77,1.47,1.47,0,0,0,.63,1.09,4.59,4.59,0,0,1,1.52,3,16.76,16.76,0,0,1,.17,2.81"/><path id="_Path_Education-10" data-name="&lt;Path&gt;Education-10" class="cls-3-Education" d="M39.18,44.48A6,6,0,0,0,43.93,41,2,2,0,0,0,44,39.91a1,1,0,0,0-.84-.8,2.82,2.82,0,0,0-.58,0,21,21,0,0,0-6.2,1.4,5.5,5.5,0,0,0-2,1.15,1,1,0,0,0,0,1.55,3.15,3.15,0,0,0,.55.41,6.62,6.62,0,0,0,4.2.88"/><path id="_Path_Education-9" data-name="&lt;Path&gt;Education-9" class="cls-3-Education" d="M37.71,51.81a5.4,5.4,0,0,0-.15-.88,13.45,13.45,0,0,1-.41-2.35c-.1-1-.16-2-.33-2.95a.67.67,0,0,0-.4-.54,26.65,26.65,0,0,0-2.94-1.2,1.55,1.55,0,0,0-.88,0c-.32.08-.4.26-.24.56a1.72,1.72,0,0,0,.28.37A5.39,5.39,0,0,1,34.12,48c.14.75.25,1.52.44,2.25a3.92,3.92,0,0,0,1.84,2.47c.69.4,1.31,0,1.31-.88"/><path id="_Path_Education-8" data-name="&lt;Path&gt;Education-8" class="cls-3-Education" d="M31.2,39.64c0,.12,0,.23,0,.35a2.79,2.79,0,0,0,1.09,2.1c.5.34.94.14,1-.46A4.46,4.46,0,0,0,33,39.49a1.89,1.89,0,0,0-.75-1.05.61.61,0,0,0-1,.31,1.93,1.93,0,0,0-.13.89"/><path id="_Path_Education-7" data-name="&lt;Path&gt;Education-7" class="cls-3-Education" d="M49.39,23.57a8.77,8.77,0,0,1,0,1.37,1.24,1.24,0,0,1-.11.43,1.84,1.84,0,0,0-.09,1.44,4.24,4.24,0,0,1-1.63,4.51.38.38,0,0,0-.2.39,4.37,4.37,0,0,1-.9,3.22,7.65,7.65,0,0,1-4.6,3c-.31.08-.63.13-.94.18-.14,0-.23.08-.21.24.15,1.22-6.92,1.38-7.13.72a3.06,3.06,0,0,0-.78-1.12c-.1-.12-.23-.07-.35,0a4.78,4.78,0,0,1-2.16,0,2.92,2.92,0,0,1-1.85-1.21c-.14-.2-.28-.16-.45-.1a11.14,11.14,0,0,1-3.56.65,8.18,8.18,0,0,1-5.06-1.71,3.77,3.77,0,0,1-1.43-2.5c0-.19-.12-.26-.3-.27a3.31,3.31,0,0,1-2.14-.86.37.37,0,0,0-.31-.09,4.29,4.29,0,0,1-4-1.94.52.52,0,0,0-.32-.22,2.54,2.54,0,0,1-1.92-1.81,11,11,0,0,1,.06-7.21,3.49,3.49,0,0,1,.83-1.28A.45.45,0,0,0,9.93,19a3.55,3.55,0,0,1,1-2.55,3.68,3.68,0,0,1,.43-.45,21.07,21.07,0,0,0,2.3-2.51,7.47,7.47,0,0,1,2.61-2.06,2.29,2.29,0,0,1,.89-.22.32.32,0,0,0,.3-.12,4.59,4.59,0,0,1,2.35-1.7A19.88,19.88,0,0,1,24,8.26a3.39,3.39,0,0,1,1.73.16.59.59,0,0,0,.47,0,5.81,5.81,0,0,1,4.12-.3A.66.66,0,0,0,30.79,8a3.47,3.47,0,0,1,3.84,1,1.84,1.84,0,0,1,.39.64c.08.26.21.26.42.17a5,5,0,0,1,1.65-.49A3,3,0,0,1,40,10.52a.32.32,0,0,0,.28.16,3.56,3.56,0,0,1,2.19.89c1,.77,2,1.56,2.91,2.38a4.37,4.37,0,0,1,1.65,2.77,1.47,1.47,0,0,0,.63,1.09,4.59,4.59,0,0,1,1.52,3,16.76,16.76,0,0,1,.17,2.81"/><g id="_Clip_Group_Education" data-name="&lt;Clip Group&gt;Education"><g class="cls-4-Education"><path id="_Path_Education-6" data-name="&lt;Path&gt;Education-6" class="cls-5-Education" d="M36.39,33.36h0c0,.51,0,1,0,1.54,0,.3.11.43.42.43.83,0,1.66,0,2.49,0,.21,0,.34,0,.26-.3a5.8,5.8,0,0,0-.28-.73,1.45,1.45,0,0,1,.95-2.15,3.05,3.05,0,0,1,.9-.08A1.47,1.47,0,0,1,42.57,34a2.46,2.46,0,0,0-.16,1c0,.21.09.31.31.31h3.16a.26.26,0,0,0,.3-.29V32.3c0-.25-.11-.26-.29-.13a7.64,7.64,0,0,1-.69.47,1.19,1.19,0,0,1-1.92-.51,2.5,2.5,0,0,1,.16-2.33,1.08,1.08,0,0,1,1.37-.52c.21.08.4.2.6.3.46.22.73.05.77-.46a5.83,5.83,0,0,0,0-1.32,14.86,14.86,0,0,1,.14-1.88c0-.34-.1-.46-.46-.45-.92,0-1.84,0-2.76,0a.74.74,0,0,1-.77-.55,1.47,1.47,0,0,1,.13-1.29,1.24,1.24,0,0,0-.23-1.52,1.66,1.66,0,0,0-2.17,0c-.57.44-.58.91-.15,1.5.1.14.21.28.3.42a.82.82,0,0,1,.13.89.89.89,0,0,1-.82.51c-.94,0-1.87,0-2.81,0-.29,0-.4.1-.39.39,0,.83,0,1.66.09,2.49a4.73,4.73,0,0,0,0,.54c.09.46-.09.62-.53.49A9.88,9.88,0,0,0,34.65,29a.94.94,0,0,0-1.11.84c0,.25,0,.5,0,.75,0,.84.48,1.19,1.29,1a4.23,4.23,0,0,1,1.12-.18c.35,0,.46.17.46.49,0,.5,0,1,0,1.5"/><path id="_Path_Education-5" data-name="&lt;Path&gt;Education-5" class="cls-6-Education" d="M54.75,25.47H53.29c-.56,0-.76-.33-.47-.83a4.12,4.12,0,0,0,.3-.64,1,1,0,0,0-.84-1.31,6.31,6.31,0,0,0-.87,0,.89.89,0,0,0-.88,1.16c.06.36.09.73.12,1.1s-.08.52-.49.52c-.83,0-1.66,0-2.49,0-1.18,0-1.26.05-1.05,1.24a12.93,12.93,0,0,1,.1,2.24A1.07,1.07,0,0,1,46.11,30c-.46.22-.79,0-1.14-.19a.81.81,0,0,0-1.3.5,3.06,3.06,0,0,0-.07,1.41c0,.32.17.65.57.71a1.51,1.51,0,0,0,1-.29c.36-.21.7-.68,1.14-.45s.39.78.4,1.24v2c0,.18,0,.39.26.39,1,0,2.08,0,3.13,0,.29,0,.45-.2.34-.51a6.66,6.66,0,0,0-.31-.73,1.61,1.61,0,0,1,.23-1.72A1.94,1.94,0,0,1,52,31.83a1.54,1.54,0,0,1,1.52,1.5c0,.51-.12,1-.12,1.53,0,.33.13.47.47.47.79,0,1.58,0,2.37,0,.57,0,.57,0,.57-.57v-.32c0-.92,0-1.84,0-2.77,0-.56.37-.93.81-.82a4.66,4.66,0,0,1,.75.23,1.23,1.23,0,0,0,1.75-.76c.26-.87,0-1.58-.94-1.55a2.79,2.79,0,0,0-1.28.46c-.61.36-1.09.08-1.09-.61,0-.91,0-1.82,0-2.73,0-.3-.09-.42-.41-.41-.54,0-1.08,0-1.62,0"/><path id="_Path_Education-4" data-name="&lt;Path&gt;Education-4" class="cls-7-Education" d="M46.6,16.62v1.77c0,.42-.14.53-.54.41s-.55-.25-.84-.33c-.77-.22-1.2,0-1.42.71a2.09,2.09,0,0,0,.06,1.28.74.74,0,0,0,.73.54A2.13,2.13,0,0,0,45.3,21a3.48,3.48,0,0,1,.84-.17c.33,0,.47.11.47.46,0,1.13,0,2.27,0,3.4,0,.54,0,.58.56.54a15.64,15.64,0,0,1,2.27,0c.92.08,1.09-.1.77-1a1.36,1.36,0,0,1,1.32-1.95h.6a1.38,1.38,0,0,1,1.39,1.81,3.75,3.75,0,0,1-.28.65c-.16.29-.11.38.23.38,1,0,2,0,3,0,.21,0,.31-.05.31-.28,0-1.13,0-2.27,0-3.4,0-.32-.18-.38-.44-.32a.94.94,0,0,0-.32.15c-.78.56-1.29.09-1.69-.56a1.63,1.63,0,0,1-.22-.55,1.69,1.69,0,0,1,.45-1.68A1.2,1.2,0,0,1,56,18.43a.47.47,0,0,0,.15.06c.42.14.6,0,.6-.42,0-1,0-2.05,0-3.08,0-.36-.13-.45-.46-.44-.81,0-1.61,0-2.41,0s-.88,0-.57.81a2.39,2.39,0,0,1,.09,1.47,1.62,1.62,0,0,1-2,1.09A1.67,1.67,0,0,1,50,16.3,2.79,2.79,0,0,1,50.38,15c.23-.48.18-.57-.34-.58-1,0-2,0-3,0-.28,0-.4.09-.39.39,0,.59,0,1.18,0,1.78"/><path id="_Path_Education-3" data-name="&lt;Path&gt;Education-3" class="cls-5-Education" d="M36.35,16.71h0c0,.71,0,1.42,0,2.13a1,1,0,0,1-1.38.77c-.28-.2-.62-.28-.89-.5a.63.63,0,0,0-.81,0,1.69,1.69,0,0,0-.53,2.22.84.84,0,0,0,1,.41c.43-.11.75-.44,1.18-.55a1.13,1.13,0,0,1,1.44,1.23,15.25,15.25,0,0,0-.08,2.24c0,.46.07.54.52.54H39.1c.37,0,.71-.06.87-.42s-.09-.61-.33-.84l-.06-.06a1.24,1.24,0,0,1,0-1.85,2.2,2.2,0,0,1,2.13-.62A1.68,1.68,0,0,1,43,22.73a2.21,2.21,0,0,1-.24,1.33c-.25.51,0,1.15.39,1.09.61-.08,1.19.09,1.8.05a2.93,2.93,0,0,1,.93-.07c.37.1.43-.08.46-.38s-.18-.49-.12-.73a12.52,12.52,0,0,0,.11-2.52c0-.22-.09-.29-.31-.3a1.85,1.85,0,0,0-.9.23,1.35,1.35,0,0,1-1.72-1.26c0-.28,0-.55,0-.83A1.34,1.34,0,0,1,44.74,18a2.57,2.57,0,0,1,1.13.3c.32.13.38,0,.38-.28,0-1,0-2,.06-3,0-.52,0-.52-.52-.53-1.15,0-2.3,0-3.44,0-.49,0-.66-.19-.68-.67a2.24,2.24,0,0,1,.26-1,2.85,2.85,0,0,0,.3-1.22A.53.53,0,0,0,41.9,11a2.35,2.35,0,0,0-1.84.06.82.82,0,0,0-.47,1,2.66,2.66,0,0,0,.52,1.13.87.87,0,0,1,.11.9.78.78,0,0,1-.79.4c-.91,0-1.82,0-2.73,0-.22,0-.37,0-.36.32,0,.65,0,1.29,0,1.94"/><path id="_Path_Education-2" data-name="&lt;Path&gt;Education-2" class="cls-3-Education" d="M36,16.75c0-.7,0-1.29,0-1.86,0-.33-.11-.44-.43-.44-.92,0-1.85,0-2.77,0-.29,0-.58,0-.7-.33a.69.69,0,0,1,.22-.85,2.32,2.32,0,0,0,.61-1,.75.75,0,0,0-.34-.94,2.25,2.25,0,0,0-1.77-.17c-1.17.31-1.35,1.07-.55,2a.74.74,0,0,1,.23.86.76.76,0,0,1-.77.43c-.95,0-1.9,0-2.85,0-.2,0-.4,0-.4.29v3.6c0,.26.13.33.35.27a4.24,4.24,0,0,0,.77-.3,1.37,1.37,0,0,1,2.08.88,2.62,2.62,0,0,1,.07,1.21A1.4,1.4,0,0,1,28,21.58a2.53,2.53,0,0,0-1.09-.15c-.24,0-.37.11-.37.36v3c0,.16.05.28.24.29.37,0,.72.11,1.1.1.71,0,1.42,0,2.13,0a.65.65,0,0,1,.63.89,4.23,4.23,0,0,1-.25.62,1.84,1.84,0,0,0-.22,1.14.79.79,0,0,0,.63.75,2.15,2.15,0,0,0,1.48-.22.49.49,0,0,0,.32-.69c-.14-.43-.3-.84-.44-1.27a1,1,0,0,1,1-1.3,10.52,10.52,0,0,0,2.63,0c.12,0,.16-.07.15-.18,0-.88.16-1.75.09-2.64,0-.28-.13-.57-.46-.61a1.53,1.53,0,0,0-1.16.22,1.35,1.35,0,0,1-2.18-.69,2.1,2.1,0,0,1,.47-2.16,1.21,1.21,0,0,1,1.94-.1,1.13,1.13,0,0,0,.71.32c.34,0,.57-.08.63-.47.11-.73,0-1.45.06-2.05"/>
    
<path id="_Path_Education-1" data-name="&lt;Path&gt;Education-1" class="cls-5-Education" d="M16.51,19.66c0,1.87,0,3.41,0,4.95,0,.39.13.49.5.49a27.08,27.08,0,0,1,3.12.06c.41.05.53.21.38.59l-.34.84a1,1,0,0,0,.39,1.27c.34.25.71.12,1.07.16.87.1,1.29-.58,1.06-1.43a3.08,3.08,0,0,1-.18-.84c0-.57.08-.62.64-.62.86,0,1.73,0,2.6,0,.32,0,.4-.13.39-.43,0-1,0-2,0-3a.59.59,0,0,1,.46-.64,1.78,1.78,0,0,1,1.07.06c.71.16,1.45.12,1.62-.37a2.29,2.29,0,0,0,.05-1.44A1,1,0,0,0,28,18.62l-.79.35c-.64.3-1,.06-1-.62,0-1.12,0-2.24,0-3.36,0-.41-.16-.54-.53-.54H22.41l-.19,0a.5.5,0,0,0-.35.84.83.83,0,0,0,.23.26,1.08,1.08,0,0,1,.08,1.55,2.06,2.06,0,0,1-1.06.58,1.84,1.84,0,0,1-1.89-.31,1,1,0,0,1-.47-1.09,3.25,3.25,0,0,1,.36-1c.29-.56.15-.82-.48-.83s-1.21,0-1.81,0c-.27,0-.37.13-.36.4.1,1.68,0,3.37,0,4.73"/>
    
<path id="_Path_Education-0" data-name="&lt;Path&gt;Education-0" class="cls-3-Education" d="M28.56,35.32h0c.55,0,1.11,0,1.66,0a.68.68,0,0,1,.67.92,2.22,2.22,0,0,1-.29.6.78.78,0,0,0,0,.9,1.7,1.7,0,0,0,1.94.37.79.79,0,0,0,.37-.62,2.27,2.27,0,0,0-.22-1.23c-.28-.55,0-.94.57-1,.77,0,1.55,0,2.33,0,.29,0,.4-.1.39-.4,0-.73,0-1.47,0-2.21,0-1,.14-1.06-1-.75a1.41,1.41,0,0,1-1.6-.45,1.67,1.67,0,0,1-.32-1,1.73,1.73,0,0,1,1.18-2,2.2,2.2,0,0,1,1.3.29c.29.11.42.1.42-.25,0-.9,0-1.79,0-2.69,0-.32-.12-.4-.42-.4a14.93,14.93,0,0,1-1.77,0,1.51,1.51,0,0,0-.93.27.52.52,0,0,0-.23.79,6.42,6.42,0,0,1,.39.94.92.92,0,0,1-.51,1.24,4.1,4.1,0,0,1-1.14.31,1.32,1.32,0,0,1-1.56-1.75c.11-.43.3-.81.42-1.23s0-.57-.4-.57h-3c-.21,0-.32.08-.32.3V28.3q0,.36.33.21l.72-.32a1.48,1.48,0,0,1,2.07.79,2.32,2.32,0,0,1,0,1.81,1.47,1.47,0,0,1-1.77.94c-.29-.09-.6-.16-.91-.24s-.47,0-.47.36c0,1,0,2,0,3.08,0,.29.1.4.39.4.55,0,1.11,0,1.66,0"/>
</g></g>
</g>
</svg>