<svg xmlns="http://www.w3.org/2000/svg" viewBox="0 0 60 60"><defs><style>.cls-1-Employment{fill:#4a4a4b;}</style></defs><g id="Employment"><path id="_Compound_Path_Employment" data-name="&lt;Compound Path&gt;Employment" class="cls-1-Employment" d="M36.11,19.44a.9.9,0,0,1-.9.9h-3a.9.9,0,0,1-.9-.9v-3a.9.9,0,0,1,.9-.9h3a.9.9,0,0,1,.9.9Zm0,7.24a.9.9,0,0,1-.9.91h-3a.9.9,0,0,1-.9-.91v-3a.9.9,0,0,1,.9-.9h3a.9.9,0,0,1,.9.9Zm0,7.24a.9.9,0,0,1-.9.91h-3a.9.9,0,0,1-.9-.91v-3a.9.9,0,0,1,.9-.91h3a.9.9,0,0,1,.9.91Zm-4.82,13H26.46V40.56a.9.9,0,0,1,.9-.9h3a.9.9,0,0,1,.91.9ZM25.55,34.83h-3a.9.9,0,0,1-.9-.91v-3a.9.9,0,0,1,.9-.91h3a.91.91,0,0,1,.91.91v3a.91.91,0,0,1-.91.91M21.63,23.66a.9.9,0,0,1,.9-.9h3a.9.9,0,0,1,.91.9v3a.91.91,0,0,1-.91.91h-3a.9.9,0,0,1-.9-.91h0Zm0-7.24a.9.9,0,0,1,.9-.9h3a.9.9,0,0,1,.91.9v3a.9.9,0,0,1-.91.9h-3a.9.9,0,0,1-.9-.9ZM44.86,46.9h-1.5V12.5a1.81,1.81,0,0,0-1.81-1.81H16.2a1.81,1.81,0,0,0-1.81,1.81h0V46.9h.75a.9.9,0,0,0-.91.9v1.51H45.77V47.8a.9.9,0,0,0-.91-.9"/></g></svg>