<svg xmlns="http://www.w3.org/2000/svg" viewBox="0 0 60 60"><defs><style>.cls-1-Financial{fill:#e6e7e8;}.cls-2-Financial{fill:#d3d5d6;}.cls-3-Financial{fill:#33669a;}.cls-4-Financial{fill:#fff;}</style></defs><g id="Financial"><polygon id="_Path_Financial-5" data-name="&lt;Path&gt;Financial-5" class="cls-1-Financial" points="52.28 15.05 10.74 19.32 11.06 22.01 48.87 18.12 50.27 29.95 53.99 29.56 52.28 15.05"/><polygon id="_Path_Financial-4" data-name="&lt;Path&gt;Financial-4" class="cls-1-Financial" points="11.05 22.01 8.3 22.29 10.33 39.52 50.91 35.34 50.27 29.95 12.45 33.83 11.05 22.01"/><polygon id="_Path_Financial-3" data-name="&lt;Path&gt;Financial-3" class="cls-2-Financial" points="48.87 18.12 11.05 22.01 12.45 33.83 50.27 29.95 48.87 18.12"/><polygon id="_Path_Financial-2" data-name="&lt;Path&gt;Financial-2" class="cls-3-Financial" points="6.01 25.4 8.32 44.95 47.66 40.91 45.35 21.36 6.01 25.4"/><g id="_Group_Financial" data-name="&lt;Group&gt;Financial"><path class="cls-4-Financial" d="M26.92,38l-.21-.09,0-.06-.08-.22-.06-.27,0-.14-.09-.09-.21-.07L26,37,25.6,37l-.41-.12L25,36.78l-.12,0-.14-.1-.22-.11-.24-.13-.08-.09-.09-.07L24,36.15,23.91,36l-.14-.25,0-.33.16-.19.27-.15.24-.06h.11l.14,0,.1.1.18.13.22.15.15.08.12.06.1.08.17.08.24.08.2,0h.11l.06-.07v-.23l-.05-.45,0-.24,0-.17,0-.16v-.15l0-.12,0-.16L26.11,34,26,34l-.09,0-.41-.09-.15,0h-.13l-.13,0L25,33.69l-.17,0-.27-.08-.19-.11-.13-.06-.17-.11-.1-.12-.13-.11-.11-.14-.07-.1-.07-.18,0-.17-.05-.1,0-.17,0-.2v-.19l0-.17.06-.15.06-.18.07-.13,0-.09.14-.2.14-.17.07-.09.15-.15.18-.15.1-.08.1-.05.15-.08L24.9,30l.23-.1.46-.18.13-.07,0-.23,0-.33V29l0,0,.07-.08.12-.1.19,0,.24,0h.21l.16,0,.14.08.08.13.05.21v.22l0,.17.15.1.4.05.13,0h.11l.16.05.15,0,.24.09.29.14.17.12.17.09.15.12.22.19.14.17,0,.09,0,.14,0,.12,0,.09-.07.11-.14.13-.26.11h-.22l-.09,0-.15-.05-.37-.28-.09-.05L28,31,27.84,31l-.19-.05-.23,0-.14,0-.06,0,0,.08v.13l0,.14v.12l.05.07,0,.06v.1l0,.13,0,.14,0,.1,0,.06,0,.22,0,.22v.13l.07.08.15.08.16.06h.11l.26,0,.12,0,.21,0,.38.07.32.07.3.14.26.2.18.18.1.13.11.24.11.29,0,.17v.7l-.07.27-.11.2-.12.2-.14.21-.22.24-.14.1-.14.12-.35.19-.18.09-.23.09-.28.11-.38.14,0,0v.37l0,.23-.13.21L27.6,38l-.06,0-.21.05Zm-1-5.33.07,0,0,0v-.47L26,32l0-.22,0-.1,0-.14V31.3l0-.16L25.81,31l0,0h-.06l-.16.06-.19.09-.15.11-.15.13-.12.19-.08.13,0,.1,0,.19,0,.22.14.18.16.11.12.06.2.06.24,0h.18Zm2.27,3,.18-.1.22-.13.15-.14.14-.15,0-.13,0-.16v-.2l0-.15-.06-.15-.11-.13-.19-.1L28.31,34l-.22,0-.25,0h-.23l-.08.1v.23l0,.22.12,1.11,0,.12,0,0h.13Z"/></g><path id="_Path_Financial-1" data-name="&lt;Path&gt;Financial-1" class="cls-4-Financial" d="M42.74,38.64a1.69,1.69,0,0,0,.21.62L27.74,40.83c3.78-.39,6.45-4.14,5.94-8.38s-4-7.35-7.75-7l15.2-1.57a1.85,1.85,0,0,0-.06.66,2,2,0,0,0,2.28,1.7,1.93,1.93,0,0,0,.67-.2l1.24,10.49a2,2,0,0,0-2.47,1.32,1.74,1.74,0,0,0,0,.75"/><path id="_Path_Financial-0" data-name="&lt;Path&gt;Financial-0" class="cls-4-Financial" d="M20,33.86c.5,4.23,4,7.35,7.76,7L12.53,42.39a1.87,1.87,0,0,0-1.42-2.31,2.13,2.13,0,0,0-1.47.15L8.4,29.74a2.08,2.08,0,0,0,.7.06,1.93,1.93,0,0,0,1.84-2,1.78,1.78,0,0,0-.22-.71l15.21-1.57c-3.79.39-6.45,4.14-5.95,8.38Z"/></g></svg>