<svg xmlns="http://www.w3.org/2000/svg" xmlns:xlink="http://www.w3.org/1999/xlink" viewBox="0 0 60 60"><defs><style>.cls-1-Health-Services{fill:none;}.cls-2-Health-Services{clip-path:url(#clip-path-Health-Services);}.cls-3-Health-Services{fill:#2aada6;}.cls-4-Health-Services{fill:#369;}</style><clipPath id="clip-path-Health-Services"><path id="_Clipping_Path_Health-Services" data-name="&lt;Clipping Path&gt;Health-Services" class="cls-1-Health-Services" d="M32.76,14.81a3.09,3.09,0,0,0-1.12.21.61.61,0,0,1-.42.06,5.53,5.53,0,0,0-4,.29.54.54,0,0,1-.45,0,3.24,3.24,0,0,0-1.66-.15A19,19,0,0,0,21,16.36,4.44,4.44,0,0,0,18.78,18a.31.31,0,0,1-.28.12,2.14,2.14,0,0,0-.86.21,7.22,7.22,0,0,0-2.51,2,20.1,20.1,0,0,1-2.2,2.41,3.94,3.94,0,0,0-1.34,2.88.39.39,0,0,1-.15.34,3.33,3.33,0,0,0-.79,1.23c-.06.17-.12.34-.17.5v6.07c0,.11.07.23.11.35a2.46,2.46,0,0,0,1.85,1.75.5.5,0,0,1,.31.21,4.12,4.12,0,0,0,3.87,1.86.36.36,0,0,1,.3.09,3.14,3.14,0,0,0,2,.82.26.26,0,0,1,.29.26,3.58,3.58,0,0,0,1.37,2.4,7.81,7.81,0,0,0,4.86,1.64,10.87,10.87,0,0,0,3.42-.62c.17-.05.3-.1.43.1a2.8,2.8,0,0,0,1.78,1.16,4.71,4.71,0,0,0,2.08,0c.11,0,.23-.07.33,0a3.13,3.13,0,0,1,.75,1.08c.2.64,7,.48,6.85-.69,0-.16.06-.21.2-.23a8.93,8.93,0,0,0,.9-.17,7.32,7.32,0,0,0,4.42-2.88,4.16,4.16,0,0,0,.87-3.09c0-.18.07-.27.19-.37a4.09,4.09,0,0,0,1.57-4.33,1.72,1.72,0,0,1,.09-1.39,1.3,1.3,0,0,0,.1-.41,8.05,8.05,0,0,0,0-1.31,16.65,16.65,0,0,0-.17-2.71,4.37,4.37,0,0,0-1.46-2.83,1.41,1.41,0,0,1-.6-1.05,4.18,4.18,0,0,0-1.59-2.66c-.91-.79-1.85-1.54-2.79-2.29a3.5,3.5,0,0,0-2.11-.85.32.32,0,0,1-.27-.16,2.87,2.87,0,0,0-2.83-1.12,4.94,4.94,0,0,0-1.59.47c-.19.09-.32.09-.4-.16a1.8,1.8,0,0,0-.37-.62,3.32,3.32,0,0,0-2.53-1.16Z"/></clipPath></defs><g id="Health-Services"><g id="_Clip_Group_Health-Services" data-name="&lt;Clip Group&gt;Health-Services"><g class="cls-2-Health-Services"><path id="_Path_Health-Services-4" data-name="&lt;Path&gt;Health-Services-4" class="cls-3-Health-Services" d="M38.72,42h0c0,.81,0,1.62,0,2.43,0,.47.17.67.66.66,1.3,0,2.6,0,3.91,0,.34,0,.54,0,.41-.48a8.81,8.81,0,0,0-.44-1.15,2.27,2.27,0,0,1,1.5-3.37A4.5,4.5,0,0,1,46.16,40a2.33,2.33,0,0,1,2.27,3,3.86,3.86,0,0,0-.26,1.58c0,.33.14.5.48.49h5c.3,0,.47-.14.47-.45V40.37c0-.39-.17-.4-.46-.2s-.71.5-1.07.73a1.88,1.88,0,0,1-3-.81,3.88,3.88,0,0,1,.25-3.65,1.68,1.68,0,0,1,2.15-.82c.33.13.63.32.94.47.72.35,1.15.08,1.22-.71a9.64,9.64,0,0,0,0-2.08,22.4,22.4,0,0,1,.22-2.95c0-.54-.16-.73-.71-.72-1.45,0-2.9,0-4.35,0a1.14,1.14,0,0,1-1.2-.86,2.29,2.29,0,0,1,.2-2,2,2,0,0,0-.36-2.39,2.6,2.6,0,0,0-3.42.05,1.49,1.49,0,0,0-.22,2.37c.15.22.32.43.47.65a1.29,1.29,0,0,1,.19,1.4,1.37,1.37,0,0,1-1.28.8c-1.47,0-2.94,0-4.41,0-.46,0-.63.17-.62.62.06,1.3.07,2.61.14,3.91a6.07,6.07,0,0,0-.06.85c.14.72-.15,1-.83.76A19.65,19.65,0,0,0,36,35.12a1.49,1.49,0,0,0-1.75,1.31c0,.4,0,.79,0,1.18,0,1.32.75,1.88,2,1.59A6.56,6.56,0,0,1,38,38.9c.54,0,.72.27.71.78,0,.78,0,1.57,0,2.35"/><path id="_Path_Health-Services-3" data-name="&lt;Path&gt;Health-Services-3" class="cls-3-Health-Services" d="M38.64,15.87h0c0,1.12,0,2.23,0,3.35a1.48,1.48,0,0,1-2.17,1.2,15,15,0,0,1-1.4-.78,1,1,0,0,0-1.27,0A2.67,2.67,0,0,0,33,23.1a1.32,1.32,0,0,0,1.63.64c.67-.17,1.17-.68,1.85-.85a1.77,1.77,0,0,1,2.27,1.92,26,26,0,0,0-.14,3.53c0,.72.11.84.82.85,1.18,0,2.36,0,3.54,0a1.3,1.3,0,0,0,1.37-.65c.27-.58-.15-1-.53-1.33l-.08-.09a2,2,0,0,1,0-2.9,3.48,3.48,0,0,1,3.35-1,2.64,2.64,0,0,1,1.94,2.09,3.44,3.44,0,0,1-.37,2.09c-.4.8,0,1.81.6,1.72,1-.13,1.89.13,2.84.07a4.53,4.53,0,0,1,1.46-.11c.59.16.67-.12.71-.6s-.28-.76-.17-1.15a19.3,19.3,0,0,0,.16-4c0-.34-.14-.46-.48-.48a3.16,3.16,0,0,0-1.42.37,2.13,2.13,0,0,1-2.7-2c0-.43,0-.87,0-1.31a2.11,2.11,0,0,1,2.13-2.15,4.13,4.13,0,0,1,1.77.47c.5.21.61,0,.61-.44,0-1.57.06-3.15.08-4.72,0-.83,0-.83-.82-.83h-5.4c-.77,0-1-.3-1.06-1.06a3.62,3.62,0,0,1,.4-1.61,4.17,4.17,0,0,0,.47-1.9.85.85,0,0,0-.51-.84A3.72,3.72,0,0,0,44.48,7a1.27,1.27,0,0,0-.74,1.5,4.42,4.42,0,0,0,.81,1.79,1.36,1.36,0,0,1,.18,1.4,1.21,1.21,0,0,1-1.25.64c-1.42,0-2.85,0-4.28,0-.35,0-.59,0-.57.51,0,1,0,2,0,3"/><path id="_Path_Health-Services-2" data-name="&lt;Path&gt;Health-Services-2" class="cls-4-Health-Services" d="M38.16,15.94c0-1.11,0-2,0-2.93,0-.52-.17-.7-.69-.69-1.45,0-2.9,0-4.34,0-.46,0-.91,0-1.1-.51a1.1,1.1,0,0,1,.34-1.34,3.72,3.72,0,0,0,1-1.51,1.19,1.19,0,0,0-.54-1.48A3.55,3.55,0,0,0,30,7.24c-1.84.47-2.13,1.67-.86,3.07a1.17,1.17,0,0,1,.35,1.35,1.18,1.18,0,0,1-1.21.68c-1.49,0-3,0-4.47,0-.33,0-.64,0-.64.46,0,1.89,0,3.77,0,5.66,0,.4.2.52.56.42A6.88,6.88,0,0,0,25,18.39a2.15,2.15,0,0,1,3.26,1.38,4.24,4.24,0,0,1,.12,1.9,2.22,2.22,0,0,1-2.86,1.85,4,4,0,0,0-1.71-.23c-.37,0-.58.18-.58.57v4.72c0,.26.08.45.38.46.58,0,1.14.18,1.72.16,1.12,0,2.24,0,3.36,0a1,1,0,0,1,1,1.4,5.83,5.83,0,0,1-.4,1,3,3,0,0,0-.34,1.8,1.25,1.25,0,0,0,1,1.18,3.52,3.52,0,0,0,2.33-.35.79.79,0,0,0,.5-1.1l-.7-2a1.61,1.61,0,0,1,1.6-2.05,16.31,16.31,0,0,0,4.13,0c.2,0,.26-.1.25-.27-.08-1.38.25-2.76.14-4.14,0-.46-.21-.91-.72-1A2.41,2.41,0,0,0,35.6,24a2.11,2.11,0,0,1-3.42-1.09,3.3,3.3,0,0,1,.73-3.38A1.92,1.92,0,0,1,36,19.39a1.73,1.73,0,0,0,1.1.5c.54,0,.9-.11,1-.74.17-1.14,0-2.28.09-3.21"/><path id="_Path_Health-Services-1" data-name="&lt;Path&gt;Health-Services-1" class="cls-3-Health-Services" d="M7.49,20.51c0,2.93,0,5.35,0,7.78,0,.6.21.77.79.77a40.07,40.07,0,0,1,4.9.09c.65.08.83.32.61.93-.17.44-.36.87-.54,1.31a1.65,1.65,0,0,0,.61,2c.53.38,1.12.18,1.68.25,1.37.14,2-.93,1.66-2.25a5.09,5.09,0,0,1-.28-1.33c0-.89.13-1,1-1,1.36,0,2.72-.05,4.08-.05.5,0,.63-.21.62-.68,0-1.57,0-3.14,0-4.72a.92.92,0,0,1,.72-1,2.87,2.87,0,0,1,1.69.09c1.11.26,2.26.2,2.54-.58a3.64,3.64,0,0,0,.07-2.26,1.53,1.53,0,0,0-2.14-1c-.42.17-.83.36-1.24.55-1,.47-1.61.1-1.61-1,0-1.76,0-3.52,0-5.28,0-.64-.25-.85-.83-.84h-5l-.31,0a.79.79,0,0,0-.55,1.33,1.45,1.45,0,0,0,.37.41,1.7,1.7,0,0,1,.12,2.43,3.29,3.29,0,0,1-1.68.92,3,3,0,0,1-3-.49A1.65,1.65,0,0,1,11,15.24a5.13,5.13,0,0,1,.56-1.55c.46-.88.24-1.3-.75-1.31s-1.9.06-2.85.07c-.43,0-.59.2-.56.62.15,2.65,0,5.3.07,7.44"/><path id="_Path_Health-Services-0" data-name="&lt;Path&gt;Health-Services-0" class="cls-4-Health-Services" d="M26.41,45.11h0c.87,0,1.74,0,2.61,0a1.09,1.09,0,0,1,1.06,1.46,3.76,3.76,0,0,1-.47.94,1.24,1.24,0,0,0-.05,1.4,2.67,2.67,0,0,0,3.05.59,1.23,1.23,0,0,0,.58-1,3.45,3.45,0,0,0-.34-1.92c-.44-.87-.07-1.48.89-1.49,1.22,0,2.44,0,3.66,0,.46,0,.63-.15.62-.61,0-1.16,0-2.32,0-3.48,0-1.57.24-1.67-1.52-1.19a2.24,2.24,0,0,1-2.53-.7,2.67,2.67,0,0,1-.5-1.5,2.73,2.73,0,0,1,1.86-3.21,3.35,3.35,0,0,1,2,.46c.44.17.66.14.65-.4,0-1.41,0-2.82,0-4.22,0-.51-.19-.63-.66-.64a23.44,23.44,0,0,1-2.78,0,2.39,2.39,0,0,0-1.45.43.81.81,0,0,0-.37,1.24,11.36,11.36,0,0,1,.61,1.49,1.45,1.45,0,0,1-.81,2,6.32,6.32,0,0,1-1.78.47,2.07,2.07,0,0,1-2.45-2.75c.17-.66.47-1.27.66-1.92s0-.9-.63-.9c-1.55,0-3.11,0-4.66,0-.33,0-.5.12-.5.47,0,1.33,0,2.65,0,4,0,.37.17.48.52.32s.75-.34,1.13-.5a2.33,2.33,0,0,1,3.25,1.24,3.63,3.63,0,0,1,0,2.84,2.32,2.32,0,0,1-2.77,1.49,14.54,14.54,0,0,0-1.44-.38c-.46-.12-.75,0-.74.55,0,1.62,0,3.23,0,4.85,0,.45.15.63.61.62.87,0,1.74,0,2.61,0"/></g></g></g></svg>