<svg xmlns="http://www.w3.org/2000/svg" viewBox="0 0 60 60"><defs><style>.cls-1-Housing{fill:#2aada6;}</style></defs><g id="Housing"><path id="_Compound_Path_Housing" data-name="&lt;Compound Path&gt;Housing" class="cls-1-Housing" d="M39.55,45.75H32.79v-8.2a1.22,1.22,0,0,1,1.26-1.17h4.23a1.23,1.23,0,0,1,1.27,1.17ZM24.32,43.4H20.1a1.22,1.22,0,0,1-1.27-1.17v-3.9a1.22,1.22,0,0,1,1.27-1.17h4.22a1.22,1.22,0,0,1,1.27,1.17v3.9a1.21,1.21,0,0,1-1.27,1.17m24.5-14.61L44.91,25.6l-6.39-5.22-6.74-5.5a2.83,2.83,0,0,0-3.56,0l-17,13.91a.93.93,0,0,0-.08,1.39l1.42,1.46a1.12,1.12,0,0,0,1.5.08L29.29,19.27a1.13,1.13,0,0,1,1.41,0L46,31.72a1.13,1.13,0,0,0,1.51-.08l1.42-1.46A.93.93,0,0,0,48.82,28.79ZM30,21.32,15.45,33.18l-.36.21V44.76a1,1,0,0,0,1.06,1h27.7a1,1,0,0,0,1.06-1V33.39a2.43,2.43,0,0,1-.35-.2Z"/></g></svg>