<svg xmlns="http://www.w3.org/2000/svg" viewBox="0 0 60 60"><defs><style>.cls-1-Legal_Support{fill:#4a4a4a;}.cls-2-Legal_Support{fill:#29aea7;}.cls-3-Legal_Support{fill:#2e8f88;}</style></defs><g id="Legal_Support" data-name="Legal Support"><path id="_Path_Legal_Support_4" data-name="&lt;Path&gt;Legal Support 4" class="cls-1-Legal_Support" d="M16.2,42.9v2a1,1,0,0,0,1,1H31a1,1,0,0,0,1-1V23.63a4.78,4.78,0,0,0,.8-.44l8.75,2.95a1,1,0,0,0,.63-1.88l-7.28-4.55q0-.32.06-.63a4.91,4.91,0,0,0-9.19-2.45l-7.26-2.46a1,1,0,0,0-.63,1.89l7.5,4.62A5,5,0,0,0,28,23.63V41.91H17.18a1,1,0,0,0-1,1"/><path id="_Path_Legal_Support_3" data-name="&lt;Path&gt;Legal Support 3" class="cls-2-Legal_Support" d="M33.94,41.92h0c0,2.74,3.54,4,7.89,4s7.89-1.22,7.89-4c0-1-15.78-1-15.78,0"/><polygon id="_Path_Legal_Support_2" data-name="&lt;Path&gt;Legal Support 2" class="cls-2-Legal_Support" points="37.39 39.92 41.83 30.99 46.27 39.92 37.39 39.92"/><path id="_Path_Legal_Support_1" data-name="&lt;Path&gt;Legal Support 1" class="cls-3-Legal_Support" d="M10.28,34c0,2.74,3.53,4,7.89,4s7.89-1.22,7.89-4c0-1-15.78-1-15.78,0"/><polygon id="_Path_Legal_Support_0" data-name="&lt;Path&gt;Legal Support 0" class="cls-3-Legal_Support" points="13.73 31.98 18.17 23.05 22.61 31.98 13.73 31.98"/></g></svg>