<svg xmlns="http://www.w3.org/2000/svg" viewBox="0 0 60 60"><defs><style>.cls-1-Reentry{fill:#369;}.cls-2-Reentry,.cls-4-Reentry{fill:none;stroke-linecap:round;stroke-linejoin:round;}.cls-2-Reentry{stroke:#29ada6;}.cls-3-Reentry{fill:#f7b817;}.cls-4-Reentry{stroke:#f7b817;}</style></defs><g id="Reentry"><path id="_Path_Reentry_3" data-name="&lt;Path&gt;Reentry 3" class="cls-1-Reentry" d="M48.84,41.49A12.61,12.61,0,1,1,36.71,28.41,12.61,12.61,0,0,1,48.84,41.49"/><path id="_Path_Reentry_2" data-name="&lt;Path&gt;Reentry 2" class="cls-2-Reentry" d="M22.94,34.52C20.69,31.45,21,22.9,22.29,22c1.51-1.1,9.54,1.37,11.79,4.44a6.9,6.9,0,0,1-11.14,8.13Z"/><path id="_Path_Reentry_1" data-name="&lt;Path&gt;Reentry 1" class="cls-3-Reentry" d="M26.45,31.37A2.2,2.2,0,1,1,30,28.77a2.2,2.2,0,0,1-3.55,2.6"/><polyline id="_Path_Reentry_0" data-name="&lt;Path&gt;Reentry 0" class="cls-4-Reentry" points="16.86 26.41 13.71 16.39 17.46 18.62 11.65 6.87 21.08 16.66 21.08 12.16 28.27 19.82"/></g></svg>