<svg xmlns="http://www.w3.org/2000/svg" viewBox="0 0 60 60"><defs><style>.cls-1-Rent-Utility{fill:#e6e7e8;}.cls-2-Rent-Utility{fill:#d3d5d6;}.cls-3-Rent-Utility{fill:#33669a;}.cls-4-Rent-Utility{fill:#fff;}</style></defs><g id="Rent-Utility"><g id="_Group_Rent-Utility" data-name="&lt;Group&gt;Rent-Utility"><rect id="_Path_Rent-Utility-3" data-name="&lt;Path&gt;Rent-Utility-3" class="cls-1-Rent-Utility" x="12.9" y="15.01" width="30.53" height="3.76" transform="translate(-1.68 3.19) rotate(-6.29)"/><polygon id="_Path_Rent-Utility-2" data-name="&lt;Path&gt;Rent-Utility-2" class="cls-1-Rent-Utility" points="46.38 16.77 43.55 17.08 44.92 29.51 14.57 32.86 13.2 20.43 10.37 20.74 12.48 39.92 48.49 35.95 46.38 16.77"/><rect id="_Path_Rent-Utility-1" data-name="&lt;Path&gt;Rent-Utility-1" class="cls-2-Rent-Utility" x="13.79" y="18.72" width="30.53" height="12.51" transform="translate(-2.56 3.33) rotate(-6.29)"/><rect id="_Path_Rent-Utility-0" data-name="&lt;Path&gt;Rent-Utility-0" class="cls-3-Rent-Utility" x="9.44" y="22.56" width="41.12" height="21.9" transform="translate(-3.49 3.49) rotate(-6.29)"/><path id="_Compound_Path_Rent-Utility" data-name="&lt;Compound Path&gt;Rent-Utility" class="cls-4-Rent-Utility" d="M30.13,38.07l-.22-.1,0-.06-.08-.24-.07-.3,0-.15-.11-.1L29.38,37l-.26,0-.36-.07-.42-.14-.17-.08-.12-.06-.15-.11-.22-.12-.25-.14-.09-.1-.08-.08-.13-.1L27,35.86l-.15-.27,0-.37.16-.21.27-.17.26-.06h.11l.14.07.1.1.19.15.23.16.15.1.13.07.1.09.18.08.25.1.2,0h.11l.06-.08v-.25l-.06-.5,0-.27,0-.19,0-.17v-.17l0-.14,0-.17-.07-.14-.07-.06-.09,0-.43-.1-.15,0h-.14l-.13,0-.12-.05-.17,0-.27-.09L27.48,33,27.35,33l-.17-.12-.11-.14-.13-.13-.11-.14-.08-.12-.07-.2,0-.18-.06-.12,0-.19,0-.22v-.2l0-.2.06-.16.05-.2.08-.15,0-.09.15-.22.14-.19.08-.1.15-.16.18-.16.11-.1.09,0,.16-.09.15-.08.24-.11.47-.2.13-.08,0-.25,0-.36v-.18l0-.05.07-.08.12-.11.19,0,.25,0h.22l.16,0,.15.1.08.13.05.24,0,.24,0,.19.16.12.4.05.14.06H31l.16.06.15,0,.25.1.3.16.17.13.19.11.15.13.22.21.15.19,0,.1,0,.16,0,.12,0,.11-.08.12-.14.14-.27.12-.22,0-.1,0-.15-.06-.39-.31-.08-.06-.16-.1-.18-.1-.19-.06-.24,0-.14,0-.06,0,0,.1v.13l0,.16v.13l.05.09,0,.06V31l0,.15,0,.15,0,.11v.07l0,.24,0,.24,0,.14.07.1.15.08.17.08H31l.27,0,.12,0,.22,0,.39.08.33.08.31.16.27.22.18.2.11.14.12.27.11.33.06.18v.77l-.07.3-.11.22-.12.23-.14.23-.24.26-.13.11-.14.13-.36.2-.19.1-.23.1-.3.12-.39.16,0,0v.3l0,.12,0,.25-.13.23-.12.08-.05,0-.22.06ZM29,32.17l.06,0,0,0v-.52l0-.2,0-.24,0-.11,0-.16v-.21l0-.18,0-.12,0,0h-.06l-.16.06-.19.1-.16.12-.15.14L28,31l-.07.14,0,.12,0,.21.05.24.15.2.16.13.12.06.21.07.24.05H29Zm2.35,3.31.19-.11.22-.15.15-.15.14-.16.06-.14,0-.17v-.23l0-.17L32.07,34,32,33.9l-.2-.12-.24-.1-.22,0-.26,0-.13,0-.11,0-.08.11v.13l0,.13v.23l.14,1.23,0,.13,0,0h.14Z"/></g></g></svg>