<svg xmlns="http://www.w3.org/2000/svg" viewBox="0 0 60 60"><defs><style>.cls-1-Substance_Abuse{fill:#2b3891;}.cls-2-Substance_Abuse{fill:#29aea7;}</style></defs><g id="Substance_Abuse" data-name="Substance Abuse"><path class="cls-1-Substance_Abuse" d="M46.59,34S17.34,21.88,17,21.62a11.53,11.53,0,0,1,4.55-3.5,11.53,11.53,0,0,1,5.66-1.19c-.05.46-1.69,5.87-1.69,5.87l7.91,3.27,1.08-3.49a6.93,6.93,0,0,0-2.82-7.81L26.5,11.34a4.18,4.18,0,0,0-1.66-.65c-3.53-.56-9.31,1.94-11.29,5.19A4,4,0,0,0,13,17.55l-.61,6.05a7,7,0,0,0,4.33,7.16L41.56,41a1.77,1.77,0,0,0,2.18-.7l3.67-3.89a1.69,1.69,0,0,0-.61-2.33l-.21-.1Z"/><path class="cls-2-Substance_Abuse" d="M17.89,47.22a1.7,1.7,0,0,0,1.17,2.12l.23,0,5.39-.28a1.75,1.75,0,0,0,1.94-1.19l2.91-9.37L21.6,35.26Z"/></g></svg>