<svg xmlns="http://www.w3.org/2000/svg" viewBox="0 0 60 60"><defs><style>.cls-1-Transportation,.cls-3-Transportation{fill:none;stroke:#33669a;stroke-miterlimit:10;}.cls-2-Transportation{fill:#33669a;}.cls-3-Transportation{stroke-linecap:round;}.cls-4-Transportation{fill:#2aada6;}</style></defs><g id="Transportation"><path id="_Path_Transportation-3" data-name="&lt;Path&gt;Transportation-3" class="cls-1-Transportation" d="M52.84,35.63c0,2.39-3.4,6.61-4.43,6.61C47.21,42.24,44,38,44,35.63a4.43,4.43,0,0,1,8.85,0Z"/><path id="_Path_Transportation-2" data-name="&lt;Path&gt;Transportation-2" class="cls-2-Transportation" d="M49.7,36a1.29,1.29,0,1,1-1.29-1.28A1.28,1.28,0,0,1,49.7,36"/><path id="_Path_Transportation-1" data-name="&lt;Path&gt;Transportation-1" class="cls-3-Transportation" d="M45.81,47.19,22.48,47.1c-3.58-.08-6.43-2.51-6.36-5.42s3-5.2,6.6-5.11l7.17.17c3.58.08,6.54-2.21,6.6-5.12s-2.78-5.33-6.36-5.42l-4.94-.12"/><path id="_Path_Transportation-0" data-name="&lt;Path&gt;Transportation-0" class="cls-2-Transportation" d="M54.56,46.73c0,1.83-3,3.31-6.63,3.31s-6.62-1.48-6.62-3.31,3-3.31,6.62-3.31,6.63,1.48,6.63,3.31"/><path id="_Compound_Path_Transportation" data-name="&lt;Compound Path&gt;Transportation" class="cls-4-Transportation" d="M7,16.18a4.79,4.79,0,0,1,9.51-1.06A4.78,4.78,0,0,1,7,16.18m6.33,19.35c-.75,0-2.18-.08-3.61-.16a5,5,0,0,1-1.13-.24C6.31,34.49,5.41,33.32,5.44,31A13,13,0,0,1,9.6,21.53a1.16,1.16,0,0,1,.9-.24,5.3,5.3,0,0,0,3.86-.5,1.14,1.14,0,0,1,.94,0A13.08,13.08,0,0,1,21.71,30a3.25,3.25,0,0,1-1.54,3.41c-1.83,1.33-4,1.69-6.86,2.1"/></g></svg>