<svg xmlns="http://www.w3.org/2000/svg" viewBox="0 0 60 60"><defs><style>.cls-1-Veterans_Services{fill:#d2232a;}.cls-2-Veterans_Services{fill:#369;}.cls-3-Veterans_Services{fill:#fff;}</style></defs><g id="Veterans_Services" data-name="Veterans Services"><path id="_Path_Veterans_Services_2" data-name="&lt;Path&gt;Veterans Services 2" class="cls-1-Veterans_Services" d="M47.83,34.32S16.4,21.27,16,21a12.37,12.37,0,0,1,4.9-3.77A12.5,12.5,0,0,1,27,16c-.05.5-1.82,6.31-1.82,6.31l8.5,3.52L34.79,22a7.44,7.44,0,0,0-3-8.4L26.24,10a4.64,4.64,0,0,0-1.79-.71c-3.79-.59-10,2.09-12.13,5.58a4.3,4.3,0,0,0-.59,1.8l-.66,6.51a7.55,7.55,0,0,0,4.66,7.68L42.42,41.86a1.89,1.89,0,0,0,2.34-.75l4-4.18a1.81,1.81,0,0,0-.66-2.5l-.22-.11Z"/><path id="_Path_Veterans_Services_1" data-name="&lt;Path&gt;Veterans Services 1" class="cls-2-Veterans_Services" d="M17,48.51a1.82,1.82,0,0,0,1.26,2.28l.24.05,5.79-.3a1.89,1.89,0,0,0,2.09-1.28l3.12-10.07L21,35.66Z"/><polygon id="_Path_Veterans_Services_0" data-name="&lt;Path&gt;Veterans Services 0" class="cls-3-Veterans_Services" points="22.71 47.84 23.55 46.21 25.45 45.95 24.08 44.69 24.4 42.9 22.71 43.74 21.01 42.9 21.34 44.69 19.97 45.95 21.86 46.21 22.71 47.84"/></g></svg>